<svg width="248" height="248" viewBox="0 0 248 248" fill="none" xmlns="http://www.w3.org/2000/svg">
<g id="checkbox-circle-svgrepo-com 1" clip-path="url(#clip0_101_1119)">
<g id="Group">
<path id="Vector" d="M123.999 227.334C66.9283 227.334 20.666 181.071 20.666 124C20.666 66.9293 66.9283 20.667 123.999 20.667C181.07 20.667 227.333 66.9293 227.333 124C227.333 181.071 181.07 227.334 123.999 227.334ZM123.999 206.667C145.924 206.667 166.951 197.957 182.454 182.454C197.957 166.951 206.666 145.925 206.666 124C206.666 102.076 197.957 81.0492 182.454 65.5462C166.951 50.0432 145.924 41.3337 123.999 41.3337C102.075 41.3337 81.0482 50.0432 65.5452 65.5462C50.0422 81.0492 41.3327 102.076 41.3327 124C41.3327 145.925 50.0422 166.951 65.5452 182.454C81.0482 197.957 102.075 206.667 123.999 206.667ZM113.697 165.334L69.8527 121.489L84.464 106.878L113.697 136.111L172.142 77.6553L186.764 92.2667L113.697 165.334Z" fill="#10182880"/>
</g>
</g>
<defs>
<clipPath id="clip0_101_1119">
<rect width="248" height="248" fill="white"/>
</clipPath>
</defs>
</svg>
