<svg width="16" height="16" viewBox="0 0 16 16" fill="none" xmlns="http://www.w3.org/2000/svg">
<g id="eye-show-svgrepo-com 1">
<path id="Vector" fill-rule="evenodd" clip-rule="evenodd" d="M7.99643 10.3334C9.28509 10.3334 10.3298 9.28869 10.3298 8.00002C10.3298 6.71135 9.28509 5.66669 7.99643 5.66669C6.70776 5.66669 5.66309 6.71135 5.66309 8.00002C5.66309 9.28869 6.70776 10.3334 7.99643 10.3334ZM7.99643 8.99629C7.44623 8.99629 7.00016 8.55022 7.00016 8.00002C7.00016 7.44982 7.44623 7.00375 7.99643 7.00375C8.54663 7.00375 8.99269 7.44982 8.99269 8.00002C8.99269 8.55022 8.54663 8.99629 7.99643 8.99629Z" fill="#868B94"/>
<path id="Vector_2" fill-rule="evenodd" clip-rule="evenodd" d="M8.00037 3.33331C4.79289 3.33331 2.6115 5.07268 1.4599 6.31983C0.57196 7.28145 0.571961 8.71851 1.4599 9.68011C2.6115 10.9273 4.79289 12.6666 8.00037 12.6666C11.2078 12.6666 13.3892 10.9273 14.5408 9.68011C15.4288 8.71851 15.4288 7.28145 14.5408 6.31983C13.3892 5.07268 11.2078 3.33331 8.00037 3.33331ZM2.43949 7.22438C3.45925 6.11999 5.31163 4.66665 8.00037 4.66665C10.6891 4.66665 12.5415 6.11999 13.5612 7.22438C13.9775 7.67518 13.9775 8.32478 13.5612 8.77558C12.5415 9.87998 10.6891 11.3333 8.00037 11.3333C5.31163 11.3333 3.45925 9.87998 2.43949 8.77558C2.02321 8.32478 2.02321 7.67518 2.43949 7.22438Z" fill="#868B94"/>
</g>
</svg>
