<svg width="24" height="24" viewBox="0 0 24 24" fill="none" xmlns="http://www.w3.org/2000/svg">
<g id="eye-off-svgrepo-com 1">
<path id="Vector" d="M4.49556 7.44089C3.5473 8.11788 2.77849 8.84177 2.18936 9.47979C0.857452 10.9222 0.857453 13.0778 2.18936 14.5202C3.91676 16.391 7.18885 19 12.0001 19C13.2959 19 14.48 18.8108 15.5524 18.4977L13.8896 16.8349C13.2937 16.9409 12.6639 17 12.0001 17C7.96696 17 5.18838 14.82 3.65874 13.1634C3.03432 12.4872 3.03432 11.5128 3.65874 10.8366C4.2376 10.2097 4.99532 9.50785 5.9322 8.87754L4.49556 7.44089Z" fill="#868B94"/>
<path id="Vector_2" d="M8.53274 11.4784C8.50731 11.6486 8.49414 11.8227 8.49414 12C8.49414 13.933 10.0612 15.5 11.9942 15.5C12.1714 15.5 12.3456 15.4868 12.5158 15.4614L8.53274 11.4784Z" fill="#868B94"/>
<path id="Vector_3" d="M15.4667 12.4471L11.5479 8.52831C11.6943 8.50964 11.8435 8.50002 11.995 8.50002C13.928 8.50002 15.495 10.067 15.495 12C15.495 12.1515 15.4854 12.3007 15.4667 12.4471Z" fill="#868B94"/>
<path id="Vector_4" d="M18.1119 15.0928C19.0285 14.4702 19.7716 13.7805 20.3414 13.1634C20.9658 12.4872 20.9658 11.5128 20.3414 10.8366C18.8118 9.18001 16.0332 6.99998 12.0001 6.99998C11.3595 6.99998 10.7506 7.05497 10.1733 7.15413L8.50488 5.4858C9.56215 5.18258 10.7273 4.99998 12.0001 4.99998C16.8113 4.99998 20.0834 7.60904 21.8108 9.47976C23.1427 10.9222 23.1427 13.0778 21.8108 14.5202C21.2306 15.1486 20.4761 15.8603 19.5475 16.5284L18.1119 15.0928Z" fill="#868B94"/>
<path id="Vector_5" d="M2.00774 3.42206C1.61721 3.03154 1.61721 2.39837 2.00774 2.00785C2.39826 1.61732 3.03143 1.61732 3.42195 2.00785L22.0003 20.5862C22.3909 20.9767 22.3909 21.6099 22.0003 22.0004C21.6098 22.3909 20.9766 22.3909 20.5861 22.0004L2.00774 3.42206Z" fill="#868B94"/>
</g>
</svg>
