<svg width="32" height="32" viewBox="0 0 32 32" fill="none" xmlns="http://www.w3.org/2000/svg">
<g id="Grid">
<path id="Circle" fill-rule="evenodd" clip-rule="evenodd" d="M15.9998 2.03885C8.28923 2.03885 2.03861 8.28948 2.03861 16C2.03861 23.7106 8.28923 29.9612 15.9998 29.9612C23.7103 29.9612 29.9609 23.7106 29.9609 16C29.9609 8.28948 23.7103 2.03885 15.9998 2.03885ZM1.96094 16C1.96094 8.24658 8.24634 1.96118 15.9998 1.96118C23.7532 1.96118 30.0386 8.24658 30.0386 16C30.0386 23.7535 23.7532 30.0389 15.9998 30.0389C8.24634 30.0389 1.96094 23.7535 1.96094 16Z" fill="#D0D5DD"/>
<path id="Circle_2" fill-rule="evenodd" clip-rule="evenodd" d="M16 12.0779C13.8338 12.0779 12.0777 13.834 12.0777 16.0002C12.0777 18.1665 13.8338 19.9226 16 19.9226C18.1662 19.9226 19.9223 18.1665 19.9223 16.0002C19.9223 13.834 18.1662 12.0779 16 12.0779ZM12 16.0002C12 13.7911 13.7909 12.0002 16 12.0002C18.2091 12.0002 20 13.7911 20 16.0002C20 18.2094 18.2091 20.0002 16 20.0002C13.7909 20.0002 12 18.2094 12 16.0002Z" fill="#D0D5DD"/>
<path id="Circle_3" fill-rule="evenodd" clip-rule="evenodd" d="M16.0004 13.3201C14.5205 13.3201 13.3208 14.5198 13.3208 15.9997C13.3208 17.4796 14.5205 18.6793 16.0004 18.6793C17.4804 18.6793 18.6801 17.4796 18.6801 15.9997C18.6801 14.5198 17.4804 13.3201 16.0004 13.3201ZM13.2432 15.9997C13.2432 14.4769 14.4776 13.2424 16.0004 13.2424C17.5233 13.2424 18.7577 14.4769 18.7577 15.9997C18.7577 17.5225 17.5233 18.757 16.0004 18.757C14.4776 18.757 13.2432 17.5225 13.2432 15.9997Z" fill="#D0D5DD"/>
<path id="Line" d="M15.9609 0H16.0386V32H15.9609V0Z" fill="#D0D5DD"/>
<path id="Line_2" d="M32 15.9609L32 16.0386L-3.39506e-09 16.0386L0 15.9609L32 15.9609Z" fill="#D0D5DD"/>
<path id="Line_3" d="M26.6016 0H26.6792V32H26.6016V0Z" fill="#D0D5DD"/>
<path id="Line_4" d="M10.6406 0H10.7183V32H10.6406V0Z" fill="#D0D5DD"/>
<path id="Line_5" d="M21.2812 0H21.3589V32H21.2812V0Z" fill="#D0D5DD"/>
<path id="Line_6" d="M5.32031 0H5.39798V32H5.32031V0Z" fill="#D0D5DD"/>
<path id="Line_7" d="M32 26.6016L32 26.6792L-3.39506e-09 26.6792L0 26.6016L32 26.6016Z" fill="#D0D5DD"/>
<path id="Line_8" d="M32 10.6406L32 10.7183L-3.39506e-09 10.7183L0 10.6406L32 10.6406Z" fill="#D0D5DD"/>
<path id="Line_9" d="M32 21.2812L32 21.3589L-3.39506e-09 21.3589L0 21.2812L32 21.2812Z" fill="#D0D5DD"/>
<path id="Line_10" d="M32 5.32031L32 5.39798L-3.39506e-09 5.39798L0 5.32031L32 5.32031Z" fill="#D0D5DD"/>
</g>
</svg>
