<svg width="271" height="272" viewBox="0 0 271 272" fill="none" xmlns="http://www.w3.org/2000/svg">
<path fill-rule="evenodd" clip-rule="evenodd" d="M271 136C271 211.111 210.438 272 135.73 272C61.0219 272 0.459961 211.111 0.459961 136C0.459961 60.8888 61.0219 0 135.73 0C210.438 0 271 60.8888 271 136" fill="#FF3A29"/>
<path fill-rule="evenodd" clip-rule="evenodd" d="M135.73 136L46.2332 237.979C17.146 212.175 0.459961 175.001 0.459961 136C0.459961 61.3924 61.5229 0 135.73 0C209.937 0 271 61.3924 271 136H135.73Z" fill="#FFB200"/>
<path fill-rule="evenodd" clip-rule="evenodd" d="M135.73 136L77.4776 258.743C30.5017 236.209 0.459961 188.331 0.459961 136C0.459961 85.124 28.8549 38.3353 73.8531 15.0632L135.73 136Z" fill="#4339F2"/>
</svg>
